<?xml version="1.0" encoding="UTF-8"?>
<svg id="Layer_2" data-name="Layer 2" xmlns="http://www.w3.org/2000/svg" viewBox="0 0 355.3 38.88">
  <defs>
    <style>
      .cls-1 {
        fill: #070707;
      }
    </style>
  </defs>
  <g id="Layer_1-2" data-name="Layer 1">
    <g>
      <g>
        <polygon class="cls-1" points="57.51 15.69 57.51 0 51.12 0 51.12 38.38 57.51 38.38 57.51 21.59 68.9 21.59 74.8 15.69 57.51 15.69"/>
        <polygon class="cls-1" points="74.8 15.69 74.8 15.69 74.8 21.59 74.8 21.59 74.8 38.38 81.19 38.38 81.19 0 74.8 0 74.8 15.69"/>
        <path class="cls-1" d="m100.18,10.74c-4.68,0-8.59,1.32-12.11,4.63l3.41,4.02c2.37-2.31,5.29-3.47,8.21-3.47,3.8,0,6.06,1.82,6.06,5.34v.77h-8.04c-2.59,0-4.96.44-6.77,1.54-2.09,1.27-3.47,3.47-3.47,6.5,0,5.34,4.24,8.81,10.3,8.81,3.25,0,6.17-1.43,8.04-4.3l.39,3.8h5.62v-17.13c0-6.61-4.3-10.52-11.62-10.52Zm5.56,16.41c0,3.91-3.3,6.77-7.21,6.77-3.03,0-4.96-1.49-4.96-3.8,0-1.16.44-2.04,1.27-2.64.99-.66,2.42-.88,3.75-.88h7.16v.55Z"/>
        <polygon class="cls-1" points="143.46 28.91 137.96 11.23 132.73 11.23 127.22 29.02 122.37 11.23 115.88 11.23 124.14 38.38 129.7 38.38 135.37 19.88 141.04 38.38 146.55 38.38 154.86 11.23 148.37 11.23 143.46 28.91"/>
        <polygon class="cls-1" points="184.1 11.23 176.28 11.23 165.77 22.25 165.77 0 159.65 0 159.65 38.38 165.77 38.38 165.77 29.9 169.84 25.44 178.05 38.38 185.32 38.38 174.3 21.37 184.1 11.23"/>
        <path class="cls-1" d="m199.91,21.31c-3.63-.88-5.18-1.54-5.18-3.3,0-1.54,1.76-2.59,4.13-2.59,2.53,0,4.9,1.1,6.33,3.3l3.8-2.92c-2.04-3.3-5.73-5.07-9.97-5.07-5.95,0-9.97,3.14-9.97,7.87,0,5.51,4.96,6.99,9.09,8.1,3.19.88,5.89,1.6,5.89,3.96,0,1.93-1.82,3.25-4.79,3.25-3.58,0-6-2.09-7.38-4.35l-4.19,3.63c1.87,2.64,5.62,5.67,11.51,5.67,6.5,0,10.85-3.52,10.85-8.87,0-6.28-5.67-7.65-10.13-8.7Z"/>
        <polygon class="cls-1" points="240.93 28.91 235.42 11.23 230.19 11.23 224.69 29.02 219.84 11.23 213.34 11.23 221.6 38.38 227.17 38.38 232.84 19.88 238.51 38.38 244.02 38.38 252.33 11.23 245.83 11.23 240.93 28.91"/>
        <path class="cls-1" d="m269.07,10.74c-7.88,0-13.49,5.89-13.49,14.04s5.73,14.1,13.49,14.1,13.49-5.95,13.49-14.1-5.67-14.04-13.49-14.04Zm0,22.74c-4.57,0-7.38-3.3-7.38-8.7s2.81-8.7,7.38-8.7,7.38,3.3,7.38,8.7-2.81,8.7-7.38,8.7Z"/>
        <path class="cls-1" d="m294.62,15.25v-4.02h-6.17v27.15h6.11v-12.01c0-2.97.16-4.4.55-5.45.93-2.92,3.25-4.13,5.62-4.13,1.21,0,2.59.39,3.42.88l2.97-5.51c-1.76-1.05-3.3-1.43-5.07-1.43-2.81,0-5.84,1.76-7.43,4.52Z"/>
        <path class="cls-1" d="m319.9,1.21l-6.17,3.41v6.61h-5.18v4.74h5.18v14.81c0,5.89,3.52,8.1,7.71,8.1,1.54,0,3.03-.22,4.52-.77v-4.74c-1.1.33-2.15.5-2.86.5-2.42,0-3.19-1.65-3.19-4.79v-13.11h6.06v-4.74h-6.06V1.21Z"/>
        <path class="cls-1" d="m345.61,10.74c-3.19,0-6.28,1.32-8.09,4.24V0h-6.11v38.38h6.11v-13.22c0-6.33,2.15-9.14,6.28-9.14,3.64,0,5.4,2.2,5.4,7.05v15.31h6.11v-17.57c0-6.5-3.63-10.08-9.69-10.08Z"/>
      </g>
      <path class="cls-1" d="m0,.06h24.15C21.25,2.27,5.26,16.66,2.51,34.87,9.98,7.45,34.12,7.83,36.94,23.29c1.07,6.32-1.6,12.95-3.66,15.08h-16.38c3.28-2.44,6.17-8,4.11-11.88-3.96-6.85-16.3,1.45-17.52,8.76,4.42-8.91,11.81-8.61,12.57-4.04.23,1.98-.53,4.65-2.74,7.16H0V.06Z"/>
    </g>
  </g>
</svg>